<svg width="54" height="54" viewBox="0 0 54 54" fill="none" xmlns="http://www.w3.org/2000/svg">
<path d="M26.9375 5C14.8413 5 5 14.8413 5 26.9375C5 39.0337 14.8413 48.875 26.9375 48.875C39.0337 48.875 48.875 39.0337 48.875 26.9375C48.875 14.8413 39.0337 5 26.9375 5ZM35.375 28.625H28.625V35.375C28.625 35.8226 28.4472 36.2518 28.1307 36.5682C27.8143 36.8847 27.3851 37.0625 26.9375 37.0625C26.4899 37.0625 26.0607 36.8847 25.7443 36.5682C25.4278 36.2518 25.25 35.8226 25.25 35.375V28.625H18.5C18.0524 28.625 17.6232 28.4472 17.3068 28.1307C16.9903 27.8143 16.8125 27.3851 16.8125 26.9375C16.8125 26.4899 16.9903 26.0607 17.3068 25.7443C17.6232 25.4278 18.0524 25.25 18.5 25.25H25.25V18.5C25.25 18.0524 25.4278 17.6232 25.7443 17.3068C26.0607 16.9903 26.4899 16.8125 26.9375 16.8125C27.3851 16.8125 27.8143 16.9903 28.1307 17.3068C28.4472 17.6232 28.625 18.0524 28.625 18.5V25.25H35.375C35.8226 25.25 36.2518 25.4278 36.5682 25.7443C36.8847 26.0607 37.0625 26.4899 37.0625 26.9375C37.0625 27.3851 36.8847 27.8143 36.5682 28.1307C36.2518 28.4472 35.8226 28.625 35.375 28.625Z" fill="#1D68D9"/>
</svg>
