<svg width="150" height="150" viewBox="0 0 150 150" fill="none" xmlns="http://www.w3.org/2000/svg">
<path d="M51.5625 121.875V140.625M23.4375 9.375H79.6875C82.1739 9.375 84.5585 10.3627 86.3166 12.1209C88.0748 13.879 89.0625 16.2636 89.0625 18.75V139.453C89.0625 139.764 88.939 140.062 88.7193 140.282C88.4995 140.502 88.2014 140.625 87.8906 140.625H14.0625V18.75C14.0625 16.2636 15.0502 13.879 16.8084 12.1209C18.5665 10.3627 20.9511 9.375 23.4375 9.375ZM93.75 56.25H126.562C129.049 56.25 131.433 57.2377 133.192 58.9959C134.95 60.754 135.938 63.1386 135.938 65.625V140.625H89.0625V60.9375C89.0625 59.6943 89.5564 58.502 90.4354 57.6229C91.3145 56.7439 92.5068 56.25 93.75 56.25Z" stroke="#5BA4A4" stroke-width="2" stroke-linecap="round" stroke-linejoin="round"/>
<path d="M28.7344 126.524C27.7636 126.651 26.7774 126.471 25.9142 126.009C25.051 125.547 24.3542 124.826 23.9215 123.948C23.4889 123.07 23.3421 122.078 23.5018 121.112C23.6615 120.146 24.1196 119.254 24.8119 118.562C25.5043 117.87 26.396 117.411 27.3619 117.252C28.3279 117.092 29.3196 117.239 30.1979 117.672C31.0762 118.104 31.797 118.801 32.2591 119.664C32.7212 120.527 32.9014 121.514 32.7744 122.484C32.6404 123.509 32.1717 124.46 31.4411 125.191C30.7104 125.922 29.7589 126.39 28.7344 126.524ZM28.7344 103.087C27.7636 103.214 26.7774 103.034 25.9142 102.572C25.051 102.109 24.3542 101.389 23.9215 100.51C23.4889 99.6321 23.3421 98.6404 23.5018 97.6744C23.6615 96.7084 24.1196 95.8167 24.8119 95.1244C25.5043 94.4321 26.396 93.9739 27.3619 93.8142C28.3279 93.6546 29.3196 93.8013 30.1979 94.234C31.0762 94.6667 31.797 95.3635 32.2591 96.2267C32.7212 97.0898 32.9014 98.076 32.7744 99.0469C32.6404 100.071 32.1717 101.023 31.4411 101.754C30.7104 102.484 29.7589 102.953 28.7344 103.087ZM28.7344 79.6494C27.7636 79.7764 26.7774 79.5962 25.9142 79.1341C25.051 78.672 24.3542 77.9512 23.9215 77.0729C23.4889 76.1946 23.3421 75.2029 23.5018 74.2369C23.6615 73.2709 24.1196 72.3792 24.8119 71.6869C25.5043 70.9946 26.396 70.5364 27.3619 70.3767C28.3279 70.2171 29.3196 70.3638 30.1979 70.7965C31.0762 71.2292 31.797 71.926 32.2591 72.7892C32.7212 73.6523 32.9014 74.6385 32.7744 75.6093C32.6404 76.6339 32.1717 77.5854 31.4411 78.316C30.7104 79.0467 29.7589 79.5154 28.7344 79.6494ZM28.7344 56.2119C27.7636 56.3389 26.7774 56.1587 25.9142 55.6966C25.051 55.2345 24.3542 54.5137 23.9215 53.6354C23.4889 52.7571 23.3421 51.7654 23.5018 50.7994C23.6615 49.8334 24.1196 48.9417 24.8119 48.2494C25.5043 47.5571 26.396 47.0989 27.3619 46.9392C28.3279 46.7796 29.3196 46.9263 30.1979 47.359C31.0762 47.7917 31.797 48.4885 32.2591 49.3517C32.7212 50.2148 32.9014 51.201 32.7744 52.1719C32.6404 53.1964 32.1717 54.1479 31.4411 54.8785C30.7104 55.6092 29.7589 56.0779 28.7344 56.2119ZM28.7344 32.7744C27.7636 32.9014 26.7774 32.7212 25.9142 32.2591C25.051 31.797 24.3542 31.0762 23.9215 30.1979C23.4889 29.3196 23.3421 28.3279 23.5018 27.3619C23.6615 26.3959 24.1196 25.5042 24.8119 24.8119C25.5043 24.1196 26.396 23.6614 27.3619 23.5017C28.3279 23.342 29.3196 23.4888 30.1979 23.9215C31.0762 24.3542 31.797 25.051 32.2591 25.9142C32.7212 26.7773 32.9014 27.7635 32.7744 28.7343C32.6404 29.7589 32.1717 30.7104 31.4411 31.441C30.7104 32.1717 29.7589 32.6404 28.7344 32.7744ZM52.1719 103.087C51.2011 103.214 50.2149 103.034 49.3517 102.572C48.4885 102.109 47.7917 101.389 47.359 100.51C46.9264 99.6321 46.7796 98.6404 46.9393 97.6744C47.099 96.7084 47.5571 95.8167 48.2494 95.1244C48.9418 94.4321 49.8335 93.9739 50.7994 93.8142C51.7654 93.6546 52.7571 93.8013 53.6354 94.234C54.5137 94.6667 55.2345 95.3635 55.6966 96.2267C56.1587 97.0898 56.3389 98.076 56.2119 99.0469C56.0779 100.071 55.6092 101.023 54.8786 101.754C54.1479 102.484 53.1964 102.953 52.1719 103.087ZM52.1719 79.6494C51.2011 79.7764 50.2149 79.5962 49.3517 79.1341C48.4885 78.672 47.7917 77.9512 47.359 77.0729C46.9264 76.1946 46.7796 75.2029 46.9393 74.2369C47.099 73.2709 47.5571 72.3792 48.2494 71.6869C48.9418 70.9946 49.8335 70.5364 50.7994 70.3767C51.7654 70.2171 52.7571 70.3638 53.6354 70.7965C54.5137 71.2292 55.2345 71.926 55.6966 72.7892C56.1587 73.6523 56.3389 74.6385 56.2119 75.6093C56.0779 76.6339 55.6092 77.5854 54.8786 78.316C54.1479 79.0467 53.1964 79.5154 52.1719 79.6494ZM52.1719 56.2119C51.2011 56.3389 50.2149 56.1587 49.3517 55.6966C48.4885 55.2345 47.7917 54.5137 47.359 53.6354C46.9264 52.7571 46.7796 51.7654 46.9393 50.7994C47.099 49.8334 47.5571 48.9417 48.2494 48.2494C48.9418 47.5571 49.8335 47.0989 50.7994 46.9392C51.7654 46.7796 52.7571 46.9263 53.6354 47.359C54.5137 47.7917 55.2345 48.4885 55.6966 49.3517C56.1587 50.2148 56.3389 51.201 56.2119 52.1719C56.0779 53.1964 55.6092 54.1479 54.8786 54.8785C54.1479 55.6092 53.1964 56.0779 52.1719 56.2119ZM52.1719 32.7744C51.2011 32.9014 50.2149 32.7212 49.3517 32.2591C48.4885 31.797 47.7917 31.0762 47.359 30.1979C46.9264 29.3196 46.7796 28.3279 46.9393 27.3619C47.099 26.3959 47.5571 25.5042 48.2494 24.8119C48.9418 24.1196 49.8335 23.6614 50.7994 23.5017C51.7654 23.342 52.7571 23.4888 53.6354 23.9215C54.5137 24.3542 55.2345 25.051 55.6966 25.9142C56.1587 26.7773 56.3389 27.7635 56.2119 28.7343C56.0779 29.7589 55.6092 30.7104 54.8786 31.441C54.1479 32.1717 53.1964 32.6404 52.1719 32.7744ZM75.6094 126.524C74.6386 126.651 73.6524 126.471 72.7892 126.009C71.926 125.547 71.2292 124.826 70.7965 123.948C70.3639 123.07 70.2171 122.078 70.3768 121.112C70.5365 120.146 70.9946 119.254 71.6869 118.562C72.3793 117.87 73.271 117.411 74.2369 117.252C75.2029 117.092 76.1946 117.239 77.0729 117.672C77.9512 118.104 78.672 118.801 79.1341 119.664C79.5962 120.527 79.7764 121.514 79.6494 122.484C79.5154 123.509 79.0467 124.46 78.3161 125.191C77.5854 125.922 76.6339 126.39 75.6094 126.524ZM75.6094 103.087C74.6386 103.214 73.6524 103.034 72.7892 102.572C71.926 102.109 71.2292 101.389 70.7965 100.51C70.3639 99.6321 70.2171 98.6404 70.3768 97.6744C70.5365 96.7084 70.9946 95.8167 71.6869 95.1244C72.3793 94.4321 73.271 93.9739 74.2369 93.8142C75.2029 93.6546 76.1946 93.8013 77.0729 94.234C77.9512 94.6667 78.672 95.3635 79.1341 96.2267C79.5962 97.0898 79.7764 98.076 79.6494 99.0469C79.5154 100.071 79.0467 101.023 78.3161 101.754C77.5854 102.484 76.6339 102.953 75.6094 103.087ZM75.6094 79.6494C74.6386 79.7764 73.6524 79.5962 72.7892 79.1341C71.926 78.672 71.2292 77.9512 70.7965 77.0729C70.3639 76.1946 70.2171 75.2029 70.3768 74.2369C70.5365 73.2709 70.9946 72.3792 71.6869 71.6869C72.3793 70.9946 73.271 70.5364 74.2369 70.3767C75.2029 70.2171 76.1946 70.3638 77.0729 70.7965C77.9512 71.2292 78.672 71.926 79.1341 72.7892C79.5962 73.6523 79.7764 74.6385 79.6494 75.6093C79.5154 76.6339 79.0467 77.5854 78.3161 78.316C77.5854 79.0467 76.6339 79.5154 75.6094 79.6494Z" fill="#5BA4A4"/>
<path d="M78.3208 54.8808C80.1456 53.0559 80.1382 50.0898 78.3042 48.2558C76.4702 46.4218 73.5041 46.4144 71.6792 48.2393C69.8543 50.0641 69.8618 53.0302 71.6958 54.8642C73.5298 56.6982 76.4959 56.7057 78.3208 54.8808Z" fill="#5BA4A4"/>
<path d="M75.6094 32.7744C74.6386 32.9014 73.6524 32.7212 72.7892 32.2591C71.926 31.797 71.2292 31.0762 70.7965 30.1979C70.3639 29.3196 70.2171 28.3279 70.3768 27.3619C70.5365 26.3959 70.9946 25.5042 71.6869 24.8119C72.3793 24.1196 73.271 23.6614 74.2369 23.5017C75.2029 23.342 76.1946 23.4888 77.0729 23.9215C77.9512 24.3542 78.672 25.051 79.1341 25.9142C79.5962 26.7773 79.7764 27.7635 79.6494 28.7343C79.5154 29.7589 79.0467 30.7104 78.3161 31.441C77.5854 32.1717 76.6339 32.6404 75.6094 32.7744ZM117.188 117.187C116.26 117.187 115.354 117.462 114.583 117.977C113.812 118.493 113.212 119.225 112.857 120.081C112.502 120.938 112.409 121.88 112.59 122.789C112.771 123.699 113.217 124.534 113.873 125.19C114.528 125.845 115.364 126.292 116.273 126.472C117.182 126.653 118.125 126.56 118.981 126.206C119.838 125.851 120.57 125.25 121.085 124.479C121.6 123.708 121.875 122.802 121.875 121.875C121.875 120.632 121.381 119.439 120.502 118.56C119.623 117.681 118.431 117.187 117.188 117.187ZM117.188 93.75C116.26 93.75 115.354 94.0249 114.583 94.54C113.812 95.055 113.212 95.7871 112.857 96.6437C112.502 97.5002 112.409 98.4427 112.59 99.352C112.771 100.261 113.217 101.096 113.873 101.752C114.528 102.408 115.364 102.854 116.273 103.035C117.182 103.216 118.125 103.123 118.981 102.768C119.838 102.413 120.57 101.813 121.085 101.042C121.6 100.271 121.875 99.3646 121.875 98.4375C121.875 97.1943 121.381 96.002 120.502 95.1229C119.623 94.2438 118.431 93.75 117.188 93.75ZM117.188 70.3125C116.26 70.3125 115.354 70.5874 114.583 71.1025C113.812 71.6175 113.212 72.3496 112.857 73.2061C112.502 74.0627 112.409 75.0052 112.59 75.9145C112.771 76.8238 113.217 77.659 113.873 78.3145C114.528 78.9701 115.364 79.4165 116.273 79.5974C117.182 79.7783 118.125 79.6854 118.981 79.3307C119.838 78.9759 120.57 78.3751 121.085 77.6042C121.6 76.8334 121.875 75.9271 121.875 75C121.875 73.7568 121.381 72.5645 120.502 71.6854C119.623 70.8063 118.431 70.3125 117.188 70.3125ZM98.4375 117.187C97.5104 117.187 96.6041 117.462 95.8333 117.977C95.0624 118.493 94.4616 119.225 94.1068 120.081C93.752 120.938 93.6592 121.88 93.8401 122.789C94.0209 123.699 94.4674 124.534 95.1229 125.19C95.7785 125.845 96.6137 126.292 97.523 126.472C98.4323 126.653 99.3748 126.56 100.231 126.206C101.088 125.851 101.82 125.25 102.335 124.479C102.85 123.708 103.125 122.802 103.125 121.875C103.125 120.632 102.631 119.439 101.752 118.56C100.873 117.681 99.6807 117.187 98.4375 117.187ZM98.4375 93.75C97.5104 93.75 96.6041 94.0249 95.8333 94.54C95.0624 95.055 94.4616 95.7871 94.1068 96.6437C93.752 97.5002 93.6592 98.4427 93.8401 99.352C94.0209 100.261 94.4674 101.096 95.1229 101.752C95.7785 102.408 96.6137 102.854 97.523 103.035C98.4323 103.216 99.3748 103.123 100.231 102.768C101.088 102.413 101.82 101.813 102.335 101.042C102.85 100.271 103.125 99.3646 103.125 98.4375C103.125 97.1943 102.631 96.002 101.752 95.1229C100.873 94.2438 99.6807 93.75 98.4375 93.75ZM98.4375 70.3125C97.5104 70.3125 96.6041 70.5874 95.8333 71.1025C95.0624 71.6175 94.4616 72.3496 94.1068 73.2061C93.752 74.0627 93.6592 75.0052 93.8401 75.9145C94.0209 76.8238 94.4674 77.659 95.1229 78.3145C95.7785 78.9701 96.6137 79.4165 97.523 79.5974C98.4323 79.7783 99.3748 79.6854 100.231 79.3307C101.088 78.9759 101.82 78.3751 102.335 77.6042C102.85 76.8334 103.125 75.9271 103.125 75C103.125 73.7568 102.631 72.5645 101.752 71.6854C100.873 70.8063 99.6807 70.3125 98.4375 70.3125Z" fill="#5BA4A4"/>
</svg>
