<svg width="25" height="26" viewBox="0 0 25 26" fill="none" xmlns="http://www.w3.org/2000/svg">
<path fill-rule="evenodd" clip-rule="evenodd" d="M17.9688 1.7371C17.661 1.7371 17.3562 1.80433 17.0718 1.93494C16.7875 2.06556 16.5291 2.25701 16.3115 2.49837C16.0938 2.73972 15.9212 3.02624 15.8034 3.34158C15.6856 3.65693 15.625 3.99491 15.625 4.33623C15.625 4.67755 15.6856 5.01553 15.8034 5.33087C15.9212 5.64621 16.0938 5.93274 16.3115 6.17409C16.5291 6.41544 16.7875 6.60689 17.0718 6.73751C17.3562 6.86813 17.661 6.93536 17.9688 6.93536C18.5904 6.93536 19.1865 6.66152 19.626 6.17409C20.0656 5.68666 20.3125 5.02556 20.3125 4.33623C20.3125 3.6469 20.0656 2.9858 19.626 2.49837C19.1865 2.01093 18.5904 1.7371 17.9688 1.7371ZM14.1406 3.46985C14.3199 2.4906 14.799 1.61019 15.4967 0.977823C16.1943 0.345452 17.0677 0 17.9688 0C18.8698 0 19.7432 0.345452 20.4408 0.977823C21.1385 1.61019 21.6176 2.4906 21.7969 3.46985H25V5.20261H21.7969C21.6176 6.18186 21.1385 7.06226 20.4408 7.69463C19.7432 8.32701 18.8698 8.67246 17.9688 8.67246C17.0677 8.67246 16.1943 8.32701 15.4967 7.69463C14.799 7.06226 14.3199 6.18186 14.1406 5.20261H0V3.46985H14.1406ZM7.03125 10.4009C6.40965 10.4009 5.81351 10.6747 5.37397 11.1621C4.93443 11.6496 4.6875 12.3107 4.6875 13C4.6875 13.6893 4.93443 14.3504 5.37397 14.8379C5.81351 15.3253 6.40965 15.5991 7.03125 15.5991C7.65285 15.5991 8.24899 15.3253 8.68853 14.8379C9.12807 14.3504 9.375 13.6893 9.375 13C9.375 12.3107 9.12807 11.6496 8.68853 11.1621C8.24899 10.6747 7.65285 10.4009 7.03125 10.4009ZM3.20312 12.1336C3.38243 11.1544 3.86151 10.274 4.55917 9.64159C5.25684 9.00922 6.13019 8.66377 7.03125 8.66377C7.93231 8.66377 8.80566 9.00922 9.50333 9.64159C10.201 10.274 10.6801 11.1544 10.8594 12.1336H25V13.8664H10.8594C10.6801 14.8456 10.201 15.726 9.50333 16.3584C8.80566 16.9908 7.93231 17.3362 7.03125 17.3362C6.13019 17.3362 5.25684 16.9908 4.55917 16.3584C3.86151 15.726 3.38243 14.8456 3.20312 13.8664H0V12.1336H3.20312ZM17.9688 19.0646C17.3471 19.0646 16.751 19.3385 16.3115 19.8259C15.8719 20.3133 15.625 20.9744 15.625 21.6638C15.625 22.3531 15.8719 23.0142 16.3115 23.5016C16.751 23.9891 17.3471 24.2629 17.9688 24.2629C18.5904 24.2629 19.1865 23.9891 19.626 23.5016C20.0656 23.0142 20.3125 22.3531 20.3125 21.6638C20.3125 20.9744 20.0656 20.3133 19.626 19.8259C19.1865 19.3385 18.5904 19.0646 17.9688 19.0646ZM14.1406 20.7974C14.3199 19.8181 14.799 18.9377 15.4967 18.3054C16.1943 17.673 17.0677 17.3275 17.9688 17.3275C18.8698 17.3275 19.7432 17.673 20.4408 18.3054C21.1385 18.9377 21.6176 19.8181 21.7969 20.7974H25V22.5301H21.7969C21.6176 23.5094 21.1385 24.3898 20.4408 25.0222C19.7432 25.6545 18.8698 26 17.9688 26C17.0677 26 16.1943 25.6545 15.4967 25.0222C14.799 24.3898 14.3199 23.5094 14.1406 22.5301H0V20.7974H14.1406Z" fill="#5BA4A4"/>
</svg>
